HIERARCHY
ROOT Pelvis
{
	OFFSET 0.000000 0.000000 0.000000
	CHANNELS 6 Xposition Yposition Zposition Xrotation Yrotation Zrotation
	JOINT LeftUpLeg_virtual
	{
		OFFSET 0.000000 0.000000 0.000000
		CHANNELS 3 Xrotation Yrotation Zrotation
		JOINT LeftUpLeg
		{
			OFFSET 18.735201 -5.666702 -4.541200
			CHANNELS 3 Xrotation Yrotation Zrotation
			JOINT LeftLeg
			{
				OFFSET -0.021200 -31.938179 0.493100
				CHANNELS 3 Xrotation Yrotation Zrotation
				JOINT LeftFoot
				{
					OFFSET 0.021200 -31.938179 -4.336299
					CHANNELS 3 Xrotation Yrotation Zrotation
					JOINT LeftToeBase
					{
						OFFSET 0.943001 -26.722000 15.023500
						CHANNELS 3 Xrotation Yrotation Zrotation
						End Site
						{
							OFFSET 0 0 0
						}
					}
				}
			}
		}
	}
	JOINT RightUpLeg_virtual
	{
		OFFSET 0.000000 0.000000 0.000000
		CHANNELS 3 Xrotation Yrotation Zrotation
		JOINT RightUpLeg
		{
			OFFSET -18.735201 -5.666702 -4.541200
			CHANNELS 3 Xrotation Yrotation Zrotation
			JOINT RightLeg
			{
				OFFSET 0.018946 -31.938133 0.493100
				CHANNELS 3 Xrotation Yrotation Zrotation
				JOINT RightFoot
				{
					OFFSET -0.018946 -31.938126 -4.336299
					CHANNELS 3 Xrotation Yrotation Zrotation
					JOINT RightToeBase
					{
						OFFSET -0.943001 -26.722004 15.023500
						CHANNELS 3 Xrotation Yrotation Zrotation
						End Site
						{
							OFFSET 0 0 0
						}
					}
				}
			}
		}
	}
	JOINT Hips_virtual
	{
		OFFSET 0.000000 0.000000 0.000000
		CHANNELS 3 Xrotation Yrotation Zrotation
		JOINT Hips
		{
			OFFSET -0.000000 -0.000000 -0.000000
			CHANNELS 3 Xrotation Yrotation Zrotation
			JOINT Spine
			{
				OFFSET 0.000000 10.199997 -0.299500
				CHANNELS 3 Xrotation Yrotation Zrotation
				JOINT Spine1
				{
					OFFSET 0.000000 11.900002 -1.516600
					CHANNELS 3 Xrotation Yrotation Zrotation
					JOINT Spine2
					{
						OFFSET 0.000000 13.600006 -2.842500
						CHANNELS 3 Xrotation Yrotation Zrotation
						JOINT Neck_virtual
						{
							OFFSET 0.000000 0.000000 0.000000
							CHANNELS 3 Xrotation Yrotation Zrotation
							JOINT Neck
							{
								OFFSET 0.000000 9.624100 -2.890100
								CHANNELS 3 Xrotation Yrotation Zrotation
								JOINT Head
								{
									OFFSET 0.000000 14.068802 -1.351900
									CHANNELS 3 Xrotation Yrotation Zrotation
									End Site
									{
										OFFSET 0 0 0
									}
								}
							}
						}
						JOINT LeftShoulder_virtual
						{
							OFFSET 0.000000 0.000000 0.000000
							CHANNELS 3 Xrotation Yrotation Zrotation
							JOINT LeftShoulder
							{
								OFFSET 15.263000 10.923401 -0.547700
								CHANNELS 3 Xrotation Yrotation Zrotation
								JOINT LeftArm
								{
									OFFSET 25.438599 -2.830597 -13.032500
									CHANNELS 3 Xrotation Yrotation Zrotation
									JOINT LeftForeArm
									{
										OFFSET 29.960503 0.000000 0.000000
										CHANNELS 3 Xrotation Yrotation Zrotation
										JOINT LeftHand
										{
											OFFSET 27.849251 0.000000 0.000000
											CHANNELS 3 Xrotation Yrotation Zrotation
											End Site
											{
												OFFSET 0 0 0
											}
										}
									}
								}
							}
						}
						JOINT RightShoulder_virtual
						{
							OFFSET 0.000000 0.000000 0.000000
							CHANNELS 3 Xrotation Yrotation Zrotation
							JOINT RightShoulder
							{
								OFFSET -15.263000 10.923401 -0.547700
								CHANNELS 3 Xrotation Yrotation Zrotation
								JOINT RightArm
								{
									OFFSET -25.438599 -2.830597 -13.032500
									CHANNELS 3 Xrotation Yrotation Zrotation
									JOINT RightForeArm
									{
										OFFSET -29.960503 0.000000 0.000000
										CHANNELS 3 Xrotation Yrotation Zrotation
										JOINT RightHand
										{
											OFFSET -27.849251 0.000000 0.000000
											CHANNELS 3 Xrotation Yrotation Zrotation
											End Site
											{
												OFFSET 0 0 0
											}
										}
									}
								}
							}
						}
					}
				}
			}
		}
	}
}
MOTION
Frames: 5
Frame Time: 0.03333333
5.847621 96.097801 7.059042 0.000000 0.000000 0.000000 9.924995 0.147133 -4.085073 -29.106325 12.868411 13.011423 32.231574 7.526797 -0.260760 -15.896799 7.819142 -1.583151 0.000000 0.000000 0.000000 4.251985 -20.435262 2.480425 -26.797854 -10.549240 -14.673371 32.651391 8.973550 -4.647510 -17.085126 7.719988 8.679893 0.000000 0.000000 0.000000 -3.707540 -13.029854 0.170408 -7.975219 1.397675 -4.503403 5.041499 -1.928368 -2.114207 1.339082 -0.761647 -0.545779 0.000000 0.000000 0.000000 3.901716 -1.149116 -0.626079 -0.069798 0.635239 0.319994 0.000000 0.000000 0.000000 2.083834 0.253691 -0.110667 -0.297508 6.083103 -4.286437 11.774386 -27.233776 -42.620216 20.063310 -61.755811 10.148359 0.000000 0.000000 0.000000 3.875313 -0.664065 -2.894156 2.053351 4.462283 -8.638045 -31.741054 1.355830 32.562548 -58.240279 82.126925 52.148651 0.000000 0.000000 0.000000 
5.756514 96.117233 7.022433 0.000000 0.000000 0.000000 9.950727 0.216719 -4.056042 -29.064026 12.878610 13.045915 32.226403 7.487052 -0.278023 -15.883014 7.791696 -1.629746 0.000000 0.000000 0.000000 4.251983 -20.221364 2.485628 -26.775122 -10.494704 -14.640280 32.608296 8.861954 -4.594156 -17.092869 7.579652 8.689929 0.000000 0.000000 0.000000 -3.684961 -12.911045 0.179468 -7.951977 1.477440 -4.452407 5.029314 -1.906703 -2.078699 1.320502 -0.750221 -0.524661 0.000000 0.000000 0.000000 3.877159 -1.126739 -0.618603 -0.083698 0.635413 0.323514 0.000000 0.000000 0.000000 2.081002 0.259958 -0.101018 -0.285912 6.067145 -4.301943 11.638104 -27.184510 -42.802087 19.975926 -61.840055 10.090745 0.000000 0.000000 0.000000 3.888278 -0.652389 -2.841020 2.058170 4.502048 -8.375141 -30.848631 1.976050 32.573801 -53.499513 82.049123 47.659257 0.000000 0.000000 0.000000 
5.656062 96.135696 6.980787 0.000000 0.000000 0.000000 9.978651 0.270857 -4.023349 -29.017092 12.884622 13.081440 32.224744 7.447520 -0.300264 -15.866111 7.766872 -1.683585 0.000000 0.000000 0.000000 4.252781 -20.006606 2.491039 -26.750607 -10.440189 -14.606633 32.561161 8.745327 -4.541922 -17.102404 7.434906 8.694319 0.000000 0.000000 0.000000 -3.660467 -12.788903 0.189432 -7.919784 1.568767 -4.399158 5.015716 -1.890170 -2.042947 1.300700 -0.741640 -0.503342 0.000000 0.000000 0.000000 3.850573 -1.105325 -0.609523 -0.098712 0.635064 0.327554 0.000000 0.000000 0.000000 2.077373 0.264849 -0.090963 -0.273706 6.050024 -4.319793 11.512261 -27.139965 -42.974686 19.898453 -61.927652 10.043816 0.000000 0.000000 0.000000 3.903915 -0.643582 -2.784251 2.065468 4.532935 -8.096304 -29.930773 2.600996 32.580849 -48.923463 81.932600 43.336638 0.000000 0.000000 0.000000 
5.546003 96.153305 6.935749 0.000000 0.000000 0.000000 10.008518 0.307979 -3.986851 -28.965808 12.886002 13.117953 32.226680 7.408072 -0.326778 -15.846056 7.744183 -1.743690 0.000000 0.000000 0.000000 4.254591 -19.794539 2.497288 -26.724413 -10.386824 -14.572209 32.510252 8.625340 -4.491906 -17.113894 7.287980 8.692406 0.000000 0.000000 0.000000 -3.634169 -12.663983 0.200096 -7.878674 1.671639 -4.344492 4.999968 -1.879179 -2.007355 1.279260 -0.736108 -0.481993 0.000000 0.000000 0.000000 3.821656 -1.085079 -0.598701 -0.114904 0.634063 0.332155 0.000000 0.000000 0.000000 2.072560 0.268207 -0.080316 -0.261017 6.031072 -4.339124 11.398575 -27.101323 -43.136773 19.831997 -62.017817 10.007978 0.000000 0.000000 0.000000 3.921650 -0.637831 -2.723662 2.075087 4.554905 -7.801269 -28.985943 3.233217 32.578957 -44.517872 81.780109 39.185984 0.000000 0.000000 0.000000 
5.426617 96.170174 6.889196 0.000000 0.000000 0.000000 10.040165 0.326936 -3.946541 -28.910391 12.882467 13.155306 32.232035 7.368607 -0.356726 -15.823013 7.723102 -1.808873 0.000000 0.000000 0.000000 4.257457 -19.589107 2.505115 -26.696932 -10.335809 -14.536685 32.455789 8.503638 -4.444945 -17.127615 7.140900 8.683963 0.000000 0.000000 0.000000 -3.606222 -12.536630 0.211266 -7.828908 1.786148 -4.289120 4.981403 -1.873907 -1.972200 1.255789 -0.733716 -0.460701 0.000000 0.000000 0.000000 3.790041 -1.066107 -0.586085 -0.132366 0.632321 0.337300 0.000000 0.000000 0.000000 2.066073 0.269960 -0.068899 -0.248037 6.009718 -4.359130 11.298129 -27.069508 -43.287543 19.777219 -62.109806 9.983222 0.000000 0.000000 0.000000 3.940841 -0.635255 -2.659108 2.086819 4.568105 -7.489926 -28.012836 3.874185 32.564556 -40.285255 81.592955 35.209489 0.000000 0.000000 0.000000 
